<?xml version="1.0" encoding="iso-8859-1"?>
<!-- Generator: Adobe Illustrator 18.0.0, SVG Export Plug-In . SVG Version: 6.00 Build 0)  -->
<!DOCTYPE svg PUBLIC "-//W3C//DTD SVG 1.1//EN" "http://www.w3.org/Graphics/SVG/1.1/DTD/svg11.dtd">
<svg fill="#92BDFF" version="1.1" id="Capa_1" xmlns="http://www.w3.org/2000/svg" xmlns:xlink="http://www.w3.org/1999/xlink" x="0px" y="0px"
	 viewBox="0 0 459.828 459.828" style="enable-background:new 0 0 459.828 459.828;" xml:space="preserve">
<g>
	<path d="M377.624,101.429c-1.997-26.156-13.142-50.473-31.886-69.218C324.966,11.439,297.348,0,267.972,0
		c-25.993,0-51.219,9.243-71.029,26.026c-12.184,10.322-21.91,23.13-28.589,37.399c-44.351,1.533-80.835,34.573-87.714,77.381
		c-36.401,2.848-65.148,33.379-65.148,70.499c0,16.568,13.431,30,30,30h360.925c10.416,0,20.087-5.403,25.547-14.273
		c8.095-13.149,12.373-28.28,12.373-43.756C444.337,142.973,415.65,109.242,377.624,101.429z M406.416,211.305H45.491
		c0-22.486,18.229-40.715,40.715-40.715c1.999,0,3.964,0.144,5.885,0.422c9.232,1.337,17.461-5.683,17.383-15.011
		c-0.001-0.175-0.002-0.35-0.002-0.525c0-34.3,27.806-62.106,62.106-62.106c1.865,0,3.71,0.083,5.533,0.246
		c6.782,0.606,13.102-3.529,15.341-9.958C203.334,52.42,233.026,30,267.972,30c44.17,0,79.977,35.807,79.977,79.977
		c0,1.396-0.036,2.784-0.108,4.162c-0.434,8.327,6.146,15.373,14.482,15.607c0.394,0.011,0.788,0.026,1.184,0.046
		c27.741,1.376,50.067,24.252,50.81,52.017C414.607,192.639,411.674,202.765,406.416,211.305z"/>
	<path d="M171.212,362.167c-27.644,0-37.407,47.99-37.407,60.254c0,20.626,16.781,37.407,37.407,37.407s37.407-16.781,37.407-37.407
		C208.619,410.157,198.855,362.167,171.212,362.167z M171.212,429.828c-4.084,0-7.407-3.323-7.407-7.407
		c0-6.377,3.744-18.607,7.407-25.885c3.663,7.277,7.407,19.508,7.407,25.885C178.619,426.504,175.296,429.828,171.212,429.828z"/>
	<path d="M291.928,362.167c-27.643,0-37.406,47.99-37.406,60.254c0,20.626,16.78,37.407,37.406,37.407s37.407-16.781,37.407-37.407
		C329.336,410.157,319.572,362.167,291.928,362.167z M291.928,429.828c-4.084,0-7.406-3.323-7.406-7.407
		c0-6.377,3.743-18.606,7.406-25.885c3.663,7.277,7.407,19.508,7.407,25.885C299.336,426.504,296.012,429.828,291.928,429.828z"/>
	<path d="M348.54,257.257c-27.644,0-37.407,47.99-37.407,60.255c0,20.626,16.781,37.406,37.407,37.406s37.406-16.78,37.406-37.406
		C385.946,305.248,376.182,257.257,348.54,257.257z M348.54,324.918c-4.084,0-7.407-3.322-7.407-7.406
		c0-6.377,3.744-18.607,7.407-25.886c3.663,7.278,7.406,19.509,7.406,25.886C355.946,321.596,352.624,324.918,348.54,324.918z"/>
	<path d="M148.695,317.512c0-12.265-9.764-60.255-37.406-60.255c-27.644,0-37.407,47.99-37.407,60.255
		c0,20.626,16.781,37.406,37.407,37.406S148.695,338.138,148.695,317.512z M111.289,324.918c-4.084,0-7.407-3.322-7.407-7.406
		c0-6.377,3.744-18.607,7.407-25.886c3.663,7.278,7.406,19.509,7.406,25.886C118.695,321.596,115.373,324.918,111.289,324.918z"/>
	<path d="M267.321,317.512c0-12.265-9.764-60.255-37.407-60.255s-37.407,47.99-37.407,60.255c0,20.626,16.781,37.406,37.407,37.406
		S267.321,338.138,267.321,317.512z M229.914,324.918c-4.084,0-7.407-3.322-7.407-7.406c0-6.377,3.744-18.608,7.407-25.886
		c3.663,7.277,7.407,19.509,7.407,25.886C237.321,321.596,233.998,324.918,229.914,324.918z"/>
</g>
<g>
</g>
<g>
</g>
<g>
</g>
<g>
</g>
<g>
</g>
<g>
</g>
<g>
</g>
<g>
</g>
<g>
</g>
<g>
</g>
<g>
</g>
<g>
</g>
<g>
</g>
<g>
</g>
<g>
</g>
</svg>
