<?xml version="1.0" encoding="iso-8859-1"?>
<!-- Generator: Adobe Illustrator 19.0.0, SVG Export Plug-In . SVG Version: 6.00 Build 0)  -->
<svg fill="#92BDFF" version="1.1" id="Capa_1" xmlns="http://www.w3.org/2000/svg" xmlns:xlink="http://www.w3.org/1999/xlink" x="0px" y="0px"
	 viewBox="0 0 440 440" style="enable-background:new 0 0 440 440;" xml:space="preserve">
<g>
	<path d="M309.698,108.021C297.315,88.148,275.639,76,252,76c-5.006,0-9.971,0.546-14.82,1.625C220.538,56.47,195.083,44,168,44
		c-26.917,0-52.311,12.375-68.957,33.356C94.08,76.455,89.04,76,84,76c-46.317,0-84,37.683-84,84s37.683,84,84,84h20
		c4.418,0,8-3.582,8-8s-3.582-8-8-8H84c-37.495,0-68-30.505-68-68s30.505-68,68-68c5.537,0,11.074,0.679,16.457,2.017
		c3.221,0.8,6.59-0.466,8.488-3.183C122.432,71.526,144.509,60,168,60c23.721,0,45.919,11.697,59.38,31.29
		c1.99,2.897,5.638,4.158,8.994,3.101C241.418,92.805,246.675,92,252,92c19.353,0,36.988,10.653,46.025,27.803
		c1.448,2.749,4.372,4.395,7.459,4.262c0.903-0.043,1.727-0.064,2.516-0.064c28.673,0,52,23.327,52,52
		c0,27.293-21.315,50.077-48.526,51.87c-0.342,0.022-0.678,0.066-1.006,0.13H264c-4.418,0-8,3.582-8,8s3.582,8,8,8h48
		c0.743,0,1.463-0.102,2.145-0.291C348.962,240.583,376,211.15,376,176C376,139.072,346.413,108.925,309.698,108.021z"/>
	<path d="M373.698,84.021C361.315,64.148,339.639,52,316,52c-5.006,0-9.971,0.546-14.82,1.625C284.538,32.47,259.083,20,232,20
		c-8.612,0-17.124,1.244-25.3,3.697c-4.231,1.27-6.633,5.729-5.362,9.962c1.269,4.23,5.726,6.637,9.962,5.362
		C217.981,37.017,224.946,36,232,36c23.721,0,45.919,11.697,59.38,31.29c1.99,2.898,5.639,4.159,8.994,3.101
		C305.418,68.805,310.675,68,316,68c19.353,0,36.988,10.653,46.025,27.803c1.447,2.749,4.379,4.397,7.459,4.262
		c0.903-0.043,1.727-0.064,2.516-0.064c28.673,0,52,23.327,52,52c0,21.36-13.395,40.864-33.329,48.533
		c-4.124,1.587-6.181,6.216-4.595,10.339c1.224,3.18,4.255,5.13,7.469,5.13c0.955,0,1.926-0.172,2.87-0.535
		C422.484,205.438,440,179.933,440,152C440,115.072,410.413,84.925,373.698,84.021z"/>
	<path d="M136,220c-4.418,0-8,3.582-8,8v72c0,4.418,3.582,8,8,8s8-3.582,8-8v-72C144,223.582,140.418,220,136,220z"/>
	<path d="M136,324c-4.418,0-8,3.582-8,8v16c0,4.418,3.582,8,8,8s8-3.582,8-8v-16C144,327.582,140.418,324,136,324z"/>
	<path d="M232,284c-4.418,0-8,3.582-8,8v16c0,4.418,3.582,8,8,8s8-3.582,8-8v-16C240,287.582,236.418,284,232,284z"/>
	<path d="M200,212c-4.418,0-8,3.582-8,8v72c0,4.418,3.582,8,8,8s8-3.582,8-8v-72C208,215.582,204.418,212,200,212z"/>
	<path d="M200,316c-4.418,0-8,3.582-8,8v56c0,4.418,3.582,8,8,8s8-3.582,8-8v-56C208,319.582,204.418,316,200,316z"/>
	<path d="M168,180c-4.418,0-8,3.582-8,8v152c0,4.418,3.582,8,8,8s8-3.582,8-8V188C176,183.582,172.418,180,168,180z"/>
	<path d="M168,364c-4.418,0-8,3.582-8,8v40c0,4.418,3.582,8,8,8s8-3.582,8-8v-40C176,367.582,172.418,364,168,364z"/>
	<path d="M232,204c-4.418,0-8,3.582-8,8v48c0,4.418,3.582,8,8,8s8-3.582,8-8v-48C240,207.582,236.418,204,232,204z"/>
</g>
<g>
</g>
<g>
</g>
<g>
</g>
<g>
</g>
<g>
</g>
<g>
</g>
<g>
</g>
<g>
</g>
<g>
</g>
<g>
</g>
<g>
</g>
<g>
</g>
<g>
</g>
<g>
</g>
<g>
</g>
</svg>
