<?xml version="1.0" encoding="iso-8859-1"?>
<!-- Generator: Adobe Illustrator 19.0.0, SVG Export Plug-In . SVG Version: 6.00 Build 0)  -->
<svg fill="#92BDFF" version="1.1" id="Layer_1" xmlns="http://www.w3.org/2000/svg" xmlns:xlink="http://www.w3.org/1999/xlink" x="0px" y="0px"
	 viewBox="0 0 455 455" style="enable-background:new 0 0 455 455;" xml:space="preserve">
<polygon points="424.149,290.667 416.385,261.689 348.308,279.931 257.499,227.5 348.308,175.069 416.385,193.311 424.149,164.333 
	385.048,153.855 432.011,126.74 417.01,100.76 370.05,127.874 380.526,88.771 351.549,81.007 333.307,149.088 242.5,201.518 
	242.5,96.656 292.336,46.817 271.123,25.604 242.5,54.228 242.5,0 212.5,0 212.5,54.228 183.877,25.604 162.664,46.817 
	212.5,96.656 212.5,201.518 121.693,149.088 103.451,81.007 74.474,88.771 84.95,127.874 37.99,100.76 22.989,126.74 
	69.952,153.855 30.851,164.333 38.615,193.311 106.692,175.069 197.501,227.5 106.692,279.931 38.615,261.689 30.851,290.667 
	69.952,301.145 22.989,328.26 37.99,354.24 84.95,327.126 74.474,366.229 103.451,373.993 121.693,305.912 212.5,253.482 
	212.5,358.344 162.664,408.183 183.877,429.396 212.5,400.772 212.5,455 242.5,455 242.5,400.772 271.123,429.396 292.336,408.183 
	242.5,358.344 242.5,253.482 333.307,305.912 351.549,373.993 380.526,366.229 370.05,327.126 417.01,354.24 432.011,328.26 
	385.048,301.145 "/>
<g>
</g>
<g>
</g>
<g>
</g>
<g>
</g>
<g>
</g>
<g>
</g>
<g>
</g>
<g>
</g>
<g>
</g>
<g>
</g>
<g>
</g>
<g>
</g>
<g>
</g>
<g>
</g>
<g>
</g>
</svg>
