<?xml version="1.0" encoding="iso-8859-1"?>
<!-- Generator: Adobe Illustrator 19.0.0, SVG Export Plug-In . SVG Version: 6.00 Build 0)  -->
<svg fill="#92BDFF" version="1.1" id="Capa_1" xmlns="http://www.w3.org/2000/svg" xmlns:xlink="http://www.w3.org/1999/xlink" x="0px" y="0px"
	 viewBox="0 0 472.866 472.866" style="enable-background:new 0 0 472.866 472.866;" xml:space="preserve">
<path d="M461.095,223.202c-13.44-58.275-42.595-110.845-82.096-148.028c-39.016-36.726-85.389-57.013-134.566-58.999V8
	c0-4.418-3.582-8-8-8s-8,3.582-8,8v8.175c-49.177,1.986-95.551,22.273-134.566,58.999c-39.5,37.183-68.656,89.753-82.096,148.028
	c-0.993,4.305,1.692,8.6,5.998,9.593c0.774,0.179,1.548,0.234,2.303,0.186c0.121,0.005,0.24,0.018,0.362,0.018c4.418,0,8-3.582,8-8
	c0-9.661,10.96-17.823,23.933-17.823S76.3,215.339,76.3,225c0,4.418,3.582,8,8,8c0.023,0,0.044-0.003,0.067-0.003
	c0.023,0,0.044,0.003,0.067,0.003c0.027,0,0.053-0.004,0.08-0.004c0.021,0,0.042,0.005,0.063,0.005c3.856,0,7.253-2.796,7.888-6.726
	c0.324-2.009,0.665-4.005,1.014-5.992c3.335-7.458,14.295-13.106,26.888-13.106c15.141,0,27.933,8.162,27.933,17.823
	c0,4.418,3.582,8,8,8c0.045,0,0.089-0.006,0.134-0.007c0.045,0.001,0.088,0.007,0.134,0.007c0.023,0,0.046-0.003,0.069-0.003
	c0.148-0.001,0.294-0.013,0.441-0.022c0.123-0.008,0.246-0.011,0.367-0.025c0.141-0.015,0.279-0.041,0.417-0.064
	c0.125-0.02,0.252-0.037,0.375-0.063c0.122-0.026,0.241-0.061,0.361-0.093c0.136-0.036,0.273-0.068,0.406-0.111
	c0.102-0.033,0.201-0.074,0.302-0.111c0.145-0.053,0.291-0.104,0.431-0.164c0.089-0.038,0.173-0.084,0.26-0.125
	c0.147-0.07,0.294-0.138,0.436-0.217c0.082-0.045,0.159-0.097,0.238-0.145c0.14-0.084,0.281-0.167,0.415-0.259
	c0.083-0.057,0.16-0.12,0.24-0.18c0.124-0.092,0.25-0.182,0.368-0.281c0.087-0.072,0.167-0.152,0.251-0.228
	c0.104-0.095,0.211-0.188,0.31-0.288c0.089-0.09,0.17-0.187,0.255-0.281c0.086-0.095,0.174-0.188,0.255-0.287
	c0.085-0.104,0.162-0.214,0.241-0.323c0.072-0.098,0.148-0.194,0.216-0.296c0.074-0.111,0.139-0.227,0.208-0.342
	c0.064-0.107,0.132-0.213,0.191-0.323c0.059-0.111,0.11-0.227,0.164-0.341c0.058-0.122,0.119-0.242,0.171-0.367
	c0.044-0.105,0.079-0.214,0.118-0.322c0.052-0.141,0.105-0.281,0.149-0.425c0.03-0.099,0.052-0.202,0.078-0.304
	c0.041-0.157,0.083-0.313,0.114-0.473c0.02-0.104,0.032-0.21,0.048-0.316c0.025-0.16,0.051-0.319,0.066-0.482
	c0.002-0.021,0.007-0.042,0.009-0.063c0.076-0.89,0.157-1.775,0.235-2.662c1.953-9.429,17.594-15.838,31.727-15.838
	c15.104,0,31.933,7.319,31.933,17.823v121.376c-9.311,3.303-16,12.195-16,22.624v52c0,28.599,23.267,51.866,51.866,51.866
	s51.866-23.267,51.866-51.866c0-13.233-10.767-24-24-24c-13.234,0-24,10.767-24,24c0,2.132-1.734,3.866-3.866,3.866
	s-3.866-1.734-3.866-3.866v-52c0-10.429-6.689-19.321-16-22.624V226.421c0.083-0.462,0.133-0.935,0.133-1.421
	c0-10.503,16.83-17.823,31.934-17.823c13.721,0,28.862,6.041,31.521,15.021c0.104,1.158,0.208,2.315,0.307,3.479
	c0.354,4.172,3.85,7.323,7.962,7.323c0.027,0,0.055-0.003,0.083-0.004c0.02,0,0.04,0.003,0.06,0.003
	c0.023,0,0.044-0.003,0.067-0.003c0.022,0,0.044,0.003,0.067,0.003c4.418,0,8-3.582,8-8c0-9.661,12.792-17.823,27.934-17.823
	c12.592,0,23.551,5.647,26.887,13.104c0.35,1.988,0.69,3.984,1.014,5.994c0.633,3.923,4.024,6.708,7.87,6.716
	c0.054,0.001,0.107,0.008,0.161,0.008c0.023,0,0.044-0.003,0.067-0.003c0.022,0,0.044,0.003,0.067,0.003c4.418,0,8-3.582,8-8
	c0-9.661,10.96-17.823,23.934-17.823s23.933,8.162,23.933,17.823c0,4.418,3.582,8,8,8c0.126,0,0.248-0.013,0.373-0.019
	c0.162,0.01,0.323,0.021,0.486,0.021c0.595,0,1.201-0.067,1.805-0.207C459.403,231.802,462.088,227.507,461.095,223.202z
	 M52.366,191.177c-5.459,0-10.664,0.935-15.408,2.622c14.769-41.876,38.24-79.078,67.875-106.974
	c16.068-15.125,33.456-27.23,51.788-36.187c-7.863,7.393-15.417,15.928-22.603,25.587c-24.017,32.284-42.547,76.113-53.131,125.135
	C73.634,195.083,63.531,191.177,52.366,191.177z M120.366,191.177c-7.973,0-15.381,1.564-21.763,4.312
	c18.15-75.967,55.042-132.654,98.849-154.103c-6.799,9.611-13.154,21.873-18.954,36.699c-12.385,31.657-21.97,74.508-27.518,122.459
	C143.124,194.72,132.385,191.177,120.366,191.177z M264.3,440.866c10.954,0,19.866-8.912,19.866-19.866c0-4.411,3.589-8,8-8
	s8,3.589,8,8c0,19.777-16.089,35.866-35.866,35.866S228.433,440.777,228.433,421v-52c0-4.411,3.589-8,8-8s8,3.589,8,8v52
	C244.433,431.954,253.345,440.866,264.3,440.866z M276.5,191.177c-12.443,0-23.631,3.188-32.067,8.489V104c0-4.418-3.582-8-8-8
	s-8,3.582-8,8v95.585c-8.42-5.252-19.556-8.408-31.933-8.408c-11.035,0-21.084,2.508-29.102,6.772
	c5.449-44.784,14.476-84.578,26.001-114.035c10.554-26.976,22.965-44.538,35.034-50.049V65c0,4.418,3.582,8,8,8s8-3.582,8-8V33.865
	c12.069,5.511,24.48,23.073,35.034,50.049c11.518,29.44,20.541,69.204,25.991,113.956
	C297.464,193.653,287.468,191.177,276.5,191.177z M352.5,191.177c-12.019,0-22.758,3.543-30.615,9.367
	c-5.548-47.951-15.133-90.803-27.518-122.459c-5.8-14.826-12.155-27.088-18.954-36.699c43.807,21.449,80.699,78.136,98.849,154.103
	C367.881,192.741,360.473,191.177,352.5,191.177z M391.978,201.359c-10.584-49.022-29.114-92.851-53.131-125.135
	c-7.185-9.659-14.74-18.194-22.602-25.587c18.332,8.957,35.72,21.062,51.787,36.187c29.635,27.896,53.106,65.098,67.875,106.974
	c-4.744-1.687-9.948-2.621-15.407-2.621C409.336,191.177,399.232,195.083,391.978,201.359z"/>
<g>
</g>
<g>
</g>
<g>
</g>
<g>
</g>
<g>
</g>
<g>
</g>
<g>
</g>
<g>
</g>
<g>
</g>
<g>
</g>
<g>
</g>
<g>
</g>
<g>
</g>
<g>
</g>
<g>
</g>
</svg>
